<svg xmlns="http://www.w3.org/2000/svg" viewBox="0 0 64 64">
  <rect width="64" height="64" rx="8" fill="#1c1a18"/>
  <g fill="none" stroke="#f6f2ec" stroke-width="3">
    <rect x="7" y="7" width="50" height="50" rx="1"/>
    <path d="M32 7v50M7 32h50"/>
  </g>
  <text x="19" y="27" fill="#f6f2ec" font-family="Georgia,serif" font-size="18" font-weight="700" text-anchor="middle">M</text>
  <path d="M41 14c-3 0-5 2-6 4-1-2-3-4-6-4-4 0-7 3-7 7 0 5 5 9 13 16 8-7 13-11 13-16 0-4-3-7-7-7z" fill="#f6f2ec" transform="translate(10 -1) scale(.55)"/>
  <path d="m19 39 3 6 7 1-5 5 1 7-6-3-6 3 1-7-5-5 7-1z" fill="#f6f2ec" transform="scale(.72) translate(7 11)"/>
  <text x="47" y="54" fill="#f6f2ec" font-family="Georgia,serif" font-size="18" font-weight="700" text-anchor="middle">M</text>
</svg>

