<svg xmlns="http://www.w3.org/2000/svg" viewBox="0 0 240 240" role="img" aria-labelledby="title desc">
  <title id="title">Símbolo da A Marcenaria Mágica</title>
  <desc id="desc">Quadrado dividido em quatro partes com as letras M, um coração e uma estrela.</desc>
  <g fill="none" stroke="#111" stroke-width="9" stroke-linecap="round" stroke-linejoin="round">
    <rect x="10" y="10" width="220" height="220" rx="3"/>
    <path d="M120 11v218M11 120h218"/>
    <path d="m62 143 12 24 27 4-20 19 5 27-24-13-24 13 5-27-20-19 27-4z"/>
  </g>
  <g fill="#111" font-family="Georgia, 'Times New Roman', serif" font-weight="700" font-size="78" text-anchor="middle">
    <text x="64" y="90">M</text>
    <text x="176" y="207">M</text>
  </g>
  <path d="M180 105c-29-26-40-37-40-52 0-13 9-21 20-21 9 0 15 5 20 12 5-7 11-12 20-12 11 0 20 8 20 21 0 15-11 26-40 52z" fill="none" stroke="#111" stroke-width="9" stroke-linecap="round" stroke-linejoin="round"/>
</svg>
